<svg xmlns="http://www.w3.org/2000/svg" width="346.667" height="346.667" preserveAspectRatio="xMidYMid meet" version="1.0" viewBox="0 0 260 260"><metadata>Created by potrace 1.11, written by Peter Selinger 2001-2013</metadata><g fill="#000" stroke="none"><path d="M0 1300 l0 -1300 1300 0 1300 0 0 1300 0 1300 -1300 0 -1300 0 0 -1300z m2590 0 l0 -1280 -1290 0 -1290 0 0 1280 0 1280 1290 0 1290 0 0 -1280z" transform="translate(0.000000,260.000000) scale(0.100000,-0.100000)"/><path d="M1099 1916 c-127 -45 -196 -155 -161 -256 21 -59 102 -179 118 -173 21 8 18 15 -32 98 -57 93 -64 137 -35 198 63 130 270 152 372 40 14 -15 83 -123 154 -240 l128 -212 -5 -55 c-12 -140 -173 -211 -323 -142 -47 21 -61 35 -96 90 -38 61 -60 78 -73 58 -5 -9 46 -96 78 -130 11 -13 44 -36 71 -50 41 -21 64 -26 130 -26 71 -1 86 2 134 29 30 17 68 47 85 68 26 32 31 48 34 105 l3 67 -142 234 c-124 204 -147 237 -187 262 -26 16 -62 34 -82 39 -48 14 -128 12 -171 -4z" transform="translate(0.000000,260.000000) scale(0.100000,-0.100000)"/><path d="M1117 1436 c-69 -25 -113 -62 -141 -117 -30 -60 -32 -94 -12 -144 8 -19 72 -130 143 -246 140 -231 163 -257 261 -285 172 -50 362 78 338 228 -9 55 -101 209 -121 201 -22 -8 -19 -15 30 -96 57 -93 64 -137 33 -197 -35 -69 -93 -103 -179 -108 -84 -5 -141 14 -186 61 -39 41 -262 409 -281 462 -44 127 113 252 268 215 69 -17 119 -57 160 -128 34 -59 52 -74 65 -52 10 15 -61 125 -103 159 -69 57 -188 77 -275 47z" transform="translate(0.000000,260.000000) scale(0.100000,-0.100000)"/></g></svg>